<svg width="400" height="400" viewBox="0 0 400 400" fill="none" xmlns="http://www.w3.org/2000/svg">
  <rect width="400" height="400" fill="#f3f4f6"/>
  <path d="M200 100C194.477 100 190 104.477 190 110V290C190 295.523 194.477 300 200 300C205.523 300 210 295.523 210 290V110C210 104.477 205.523 100 200 100Z" fill="#9ca3af"/>
  <path d="M110 190H290C295.523 190 300 194.477 300 200C300 205.523 295.523 210 290 210H110C104.477 210 100 205.523 100 200C100 194.477 104.477 190 110 190Z" fill="#9ca3af"/>
  <rect x="150" y="150" width="100" height="100" rx="10" fill="#d1d5db"/>
  <text x="200" y="330" text-anchor="middle" fill="#6b7280" font-family="Arial, sans-serif" font-size="14">No Image Available</text>
</svg>
